<svg width="16" height="16" viewBox="0 0 16 16" fill="none" xmlns="http://www.w3.org/2000/svg">
<g clip-path="url(#clip0)">
<path d="M15.6413 12.4625L13.1703 10.1471C12.6782 9.68785 11.8631 9.7018 11.3538 10.1792L10.109 11.3453C10.0303 11.3046 9.9489 11.2622 9.86331 11.2172C9.07718 10.8091 8.00124 10.2497 6.86903 9.18818C5.73346 8.12437 5.13589 7.11475 4.69898 6.37773C4.65287 6.29965 4.6087 6.22437 4.56507 6.15288L5.40057 5.37125L5.81133 4.98593C6.32142 4.50788 6.33549 3.74447 5.84447 3.28386L3.37352 0.96826C2.8825 0.5083 2.0671 0.522254 1.557 1.0003L0.860607 1.65652L0.879637 1.67422C0.646126 1.95338 0.450997 2.27535 0.305787 2.62256C0.171932 2.95306 0.0885941 3.26844 0.0504876 3.58447C-0.275785 6.11873 0.960263 8.43485 4.31474 11.5778C8.95164 15.9219 12.6884 15.5937 12.8496 15.5777C13.2007 15.5384 13.5372 15.4598 13.8791 15.3354C14.2465 15.2009 14.5899 15.0183 14.8877 14.8L14.9029 14.8127L15.6084 14.1654C16.1174 13.6875 16.1321 12.9238 15.6413 12.4625Z" fill="white"/>
</g>
<defs>
<clipPath id="clip0">
<rect width="16" height="14.9908" fill="white" transform="matrix(1 0 0 -1 0 15.6061)"/>
</clipPath>
</defs>
</svg>
