<svg width="16" height="16" viewBox="0 0 16 16" fill="none" xmlns="http://www.w3.org/2000/svg">
<g clip-path="url(#clip0)">
<path d="M15.541 9.5865C15.3094 9.5865 15.1217 9.76239 15.1217 9.97941V13.4682C15.1209 14.1188 14.5582 14.6461 13.8636 14.6469H2.0968C1.40223 14.6461 0.839538 14.1188 0.838719 13.4682V3.22937C0.839538 2.57861 1.40223 2.05141 2.0968 2.05064H5.82025C6.05188 2.05064 6.23961 1.87476 6.23961 1.65774C6.23961 1.44071 6.05188 1.26483 5.82025 1.26483H2.0968C0.9393 1.26605 0.0013105 2.14488 0 3.22937V13.4682C0.0013105 14.5527 0.9393 15.4315 2.0968 15.4327H13.8636C15.0211 15.4315 15.9591 14.5527 15.9604 13.4682V9.97957C15.9604 9.76255 15.7727 9.5865 15.541 9.5865Z" fill="white"/>
<path d="M6.55737 7.51858L12.6805 1.78151L14.6553 3.6317L8.53213 9.36878L6.55737 7.51858Z" fill="white"/>
<path d="M5.55835 10.3055L7.74066 9.73901L6.16282 8.2602L5.55835 10.3055Z" fill="white"/>
<path d="M15.2011 0.809623C14.7914 0.426565 14.1281 0.426565 13.7184 0.809623L13.2737 1.22646L15.2485 3.07726L15.6932 2.66043C16.1021 2.27645 16.1021 1.65481 15.6932 1.27083L15.2011 0.809623Z" fill="white"/>
</g>
<defs>
<clipPath id="clip0">
<rect width="16" height="14.9908" fill="white" transform="translate(0 0.461517)"/>
</clipPath>
</defs>
</svg>
