<svg width="75" height="73" viewBox="0 0 75 73" fill="none" xmlns="http://www.w3.org/2000/svg">
<path d="M37.5442 62.9053L30.0354 54.0735L31.8622 52.5239L37.5442 59.2012L43.2262 52.5239L45.053 54.0735L37.5442 62.9053Z" fill="#C1C1C0"/>
<path d="M36.6243 48.9837L29.2163 40.2654L31.0431 38.7032L38.4637 47.4341L36.6243 48.9837Z" fill="#C1C1C0"/>
<path d="M45.8616 36.2908L44.0374 34.7409L36.6302 43.459L38.4545 45.0089L45.8616 36.2908Z" fill="#C1C1C0"/>
<path d="M44.0059 11.0142L42.1819 9.46399L36.6257 16.0017L38.4497 17.5519L44.0059 11.0142Z" fill="#C1C1C0"/>
<path d="M37.5441 57.639L28.9392 47.5097V24.4037L36.3472 33.122V28.0951L28.9392 19.3768V11.742L37.5441 1.61264L46.149 11.742V47.4971L37.5441 57.639ZM31.333 46.6278L37.5441 53.935L43.7553 46.6278V12.6239L37.5441 5.31666L31.333 12.6239V18.4949L38.741 27.2132V39.6355L31.333 30.9172V46.6278Z" fill="#C1C1C0"/>
<path d="M38.7409 68.3983H36.3472V22.7532L29.2163 14.3625L31.0431 12.8129L38.7409 21.8713V68.3983Z" fill="#C1C1C0"/>
<path d="M37.5442 70.9433C29.7078 70.9433 22.3375 67.8944 16.7815 62.3509C11.2381 56.8075 8.18921 49.4373 8.18921 41.5883C8.18921 33.7519 11.2381 26.3817 16.7815 20.8257L21.0147 25.0588C16.6051 29.4684 14.1736 35.3393 14.1736 41.5757C14.1736 47.8121 16.6051 53.683 21.0147 58.0926C25.4242 62.5021 31.2952 64.9337 37.5316 64.9337C43.7679 64.9337 49.6389 62.5021 54.0484 58.0926C58.458 53.683 60.8895 47.8121 60.8895 41.5757C60.8895 35.3393 58.458 29.4684 54.0484 25.0588L58.2816 20.8257C63.825 26.3691 66.8739 33.7393 66.8739 41.5883C66.8739 49.4373 63.825 56.7949 58.2816 62.3509C52.7508 67.8944 45.3805 70.9433 37.5442 70.9433Z" fill="#104A6B"/>
</svg>
