<svg width="75" height="76" viewBox="0 0 75 76" fill="none" xmlns="http://www.w3.org/2000/svg">
<path d="M65.4426 73.5715H16.0071V11.1624H65.4426V73.5715ZM18.1718 71.4068H63.2778V13.3271H18.1718V71.4068Z" fill="#104A6B"/>
<path d="M64.3529 13.3271H15.2708C12.1194 13.3271 9.57178 10.7648 9.57178 7.62809C9.57178 4.49143 12.1194 1.91437 15.2708 1.91437H65.2364V4.0791H15.2708C13.3122 4.0791 11.7218 5.66952 11.7218 7.62809C11.7218 9.58666 13.3122 11.1771 15.2708 11.1771H64.3529V13.3271Z" fill="#104A6B"/>
<path d="M17.0822 73.5715C11.8544 73.5715 9.8811 70.0373 9.57185 68.167L9.55713 67.9903V7.61334H11.7219V67.8725C11.8544 68.4763 12.7232 71.4068 17.0969 71.4068V73.5715H17.0822Z" fill="#104A6B"/>
<path d="M61.4813 6.53833H11.0002V8.70307H61.4813V6.53833Z" fill="#104A6B"/>
<path d="M54.1329 7.61334H47.5356V37.5368H54.1329V7.61334Z" fill="#104A6B"/>
<path d="M33.5313 59.0664C33.119 59.0664 32.7067 58.978 32.3238 58.7424C31.0573 58.0061 30.9248 56.4746 30.807 55.1198C30.7481 54.4424 30.6745 53.6914 30.4683 53.3379C30.2769 53.014 29.6731 52.6016 29.1429 52.2188C28.0679 51.4677 26.7131 50.54 26.7131 49.0232C26.7131 47.5064 28.0532 46.5787 29.1429 45.8276C29.6731 45.4595 30.2769 45.0324 30.4683 44.7085C30.6745 44.355 30.7481 43.5893 30.807 42.9266C30.9248 41.5718 31.0573 40.0403 32.3238 39.304C33.5608 38.5971 34.9303 39.2304 36.1378 39.7752C36.7711 40.0697 37.4779 40.3937 37.9344 40.3937C38.3909 40.3937 39.0978 40.0697 39.731 39.7752C40.9385 39.2156 42.3228 38.5824 43.5451 39.304C44.8115 40.0403 44.944 41.5718 45.0619 42.9266C45.1208 43.604 45.1944 44.355 45.4006 44.7085C45.592 45.0324 46.1958 45.4448 46.7259 45.8276C47.8009 46.5787 49.1557 47.5064 49.1557 49.0232C49.1557 50.54 47.8156 51.4677 46.7259 52.2188C46.1958 52.5869 45.592 53.014 45.4006 53.3379C45.1944 53.6914 45.1208 54.4571 45.0619 55.1198C44.944 56.4746 44.8115 58.0061 43.5451 58.7424C42.3081 59.4493 40.9385 58.8161 39.731 58.2712C39.0978 57.9767 38.3909 57.6527 37.9344 57.6527C37.4779 57.6527 36.7711 57.9767 36.1378 58.2712C35.3132 58.6541 34.4149 59.0664 33.5313 59.0664ZM33.546 41.1447C33.4871 41.1447 33.4282 41.1595 33.3988 41.1742C33.1043 41.3509 33.0012 42.4112 32.9423 43.118C32.8539 44.0605 32.7803 45.0177 32.3238 45.7982C31.8967 46.5345 31.1162 47.0794 30.3652 47.6095C29.732 48.0513 28.8631 48.655 28.8631 49.0379C28.8631 49.4208 29.732 50.0246 30.3652 50.4664C31.1162 50.9965 31.8967 51.5266 32.3238 52.2777C32.7656 53.0434 32.8539 54.0153 32.9423 54.9578C33.0012 55.6647 33.1043 56.7397 33.3988 56.9017C33.6639 57.0636 34.6505 56.6071 35.2395 56.3273C36.1084 55.9297 37.0214 55.5174 37.9344 55.5174C38.8622 55.5174 39.7605 55.9297 40.6293 56.3273C41.2183 56.5924 42.205 57.0489 42.4701 56.9017C42.7646 56.7249 42.8677 55.6647 42.9266 54.9578C43.0149 54.0153 43.0886 53.0582 43.5451 52.2777C43.9721 51.5414 44.7526 50.9965 45.5036 50.4664C46.1369 50.0246 47.0057 49.4208 47.0057 49.0379C47.0057 48.655 46.1369 48.0513 45.5036 47.6095C44.7526 47.0794 43.9721 46.5492 43.5451 45.7982C43.1033 45.0324 43.0149 44.0605 42.9266 43.118C42.8677 42.4112 42.7646 41.3362 42.4701 41.1742C42.205 41.0269 41.2183 41.4687 40.6293 41.7485C39.7605 42.1461 38.8474 42.5584 37.9344 42.5584C37.0067 42.5584 36.1084 42.1461 35.2395 41.7485C34.7241 41.5129 33.9289 41.1447 33.546 41.1447Z" fill="#C1C1C0"/>
</svg>
