<svg width="75" height="75" viewBox="0 0 75 75" fill="none" xmlns="http://www.w3.org/2000/svg">
<g clip-path="url(#clip0)">
<path d="M34.0921 27.9691H28.9392V59.5162H34.0921V27.9691Z" fill="#104A6B"/>
<path d="M38.363 27.9691H36.6748V59.5162H38.363V27.9691Z" fill="#104A6B"/>
<path d="M46.086 27.9691H40.9331V59.5162H46.086V27.9691Z" fill="#104A6B"/>
<path d="M62.5148 24.5044H12.5232V26.1926H62.5148V24.5044Z" fill="#C1C1C0"/>
<path d="M20.2335 43.6166L12.5231 27.3139L4.80008 43.6166L3.27563 42.8985L11.7546 24.9957C11.8931 24.7059 12.1955 24.517 12.5105 24.517C12.8254 24.517 13.1278 24.7059 13.2664 24.9957L21.7453 42.8985L20.2335 43.6166Z" fill="#C1C1C0"/>
<path d="M12.5231 50.3442C7.83638 50.3442 3.47724 48.0135 0.869309 44.0953L0 42.785H25.0336L24.1643 44.0953C21.5689 48.0135 17.2098 50.3442 12.5231 50.3442ZM3.27566 44.4733C5.59382 47.119 8.94507 48.656 12.5231 48.656C16.1011 48.656 19.4524 47.119 21.7705 44.4733H3.27566Z" fill="#104A6B"/>
<path d="M70.2251 43.6166L62.5021 27.3139L54.7791 43.6166L53.2546 42.8985L61.7336 24.9957C61.8721 24.7059 62.1745 24.517 62.4895 24.517C62.8044 24.517 63.1068 24.7059 63.2454 24.9957L71.7243 42.8985L70.2251 43.6166Z" fill="#C1C1C0"/>
<path d="M62.5021 50.3442C57.8154 50.3442 53.4562 48.0135 50.8483 44.0953L49.979 42.785H75.0126L74.1433 44.0953C71.548 48.0135 67.2014 50.3442 62.5021 50.3442ZM53.2673 44.4733C55.5854 47.119 58.9367 48.656 62.5147 48.656C66.0927 48.656 69.444 47.119 71.7621 44.4733H53.2673Z" fill="#104A6B"/>
<path d="M56.2658 21.9091L37.519 15.2066L18.7595 21.9091V20.1957V18.4948L37.519 11.8049L56.2658 18.4948V20.1957V21.9091Z" fill="#104A6B"/>
<path d="M50.1049 61.5571H24.9202V63.2453H50.1049V61.5571Z" fill="#C1C1C0"/>
</g>
<defs>
<clipPath id="clip0">
<rect width="75" height="75" fill="white"/>
</clipPath>
</defs>
</svg>
