<svg width="75" height="76" viewBox="0 0 75 76" fill="none" xmlns="http://www.w3.org/2000/svg">
<path d="M60.7634 60.5746H28.8005V62.4518H60.7634V60.5746Z" fill="#104A6B"/>
<path d="M55.913 53.6327H33.6511V59.3651H55.913V53.6327Z" fill="#104A6B"/>
<path d="M72.6691 65.614H16.8948V51.0499H18.772V63.7494H70.8045V11.7168H18.772V38.6024H16.8948V9.8396H72.6691V65.614Z" fill="#C1C1C0"/>
<path d="M43.9137 34.6037L43.1682 32.8808L10.7685 46.899L11.5139 48.6219L43.9137 34.6037Z" fill="#104A6B"/>
<path d="M33.7967 41.0748L31.5198 35.8141L2.39556 48.4197L4.67247 53.6803L33.7967 41.0748Z" fill="#104A6B"/>
<path d="M51.1765 44.1692L41.1531 21.0109L35.8924 23.2878L45.9159 46.4461L51.1765 44.1692Z" fill="#104A6B"/>
<path d="M52.7003 43.5033L42.6843 20.3595L44.3977 19.6162L54.4263 42.76L52.7003 43.5033Z" fill="#104A6B"/>
<path d="M61.2168 39.832L51.1934 16.6736L45.9327 18.9506L55.9561 42.1089L61.2168 39.832Z" fill="#104A6B"/>
</svg>
