<svg width="76" height="75" viewBox="0 0 76 75" fill="none" xmlns="http://www.w3.org/2000/svg">
<g clip-path="url(#clip0)">
<path d="M38.3019 64.632L37.0391 62.7378C37.8725 62.1821 57.6612 49.2507 75.202 57.7369L74.2044 59.7954C57.8254 51.8648 39.0975 64.1143 38.3019 64.632Z" fill="#C1C1C0"/>
<path d="M38.2009 64.7457L36.3572 63.3945C36.976 62.5484 51.7638 42.7976 71.8682 45.8157L71.5272 48.0762C52.7741 45.2475 38.7818 63.9501 38.2009 64.7457Z" fill="#C1C1C0"/>
<path d="M38.1251 64.8846L35.9404 64.2406C36.2435 63.2177 43.4796 39.2743 63.7229 35.4984L64.1396 37.7462C45.2602 41.2569 38.403 63.9123 38.1251 64.8846Z" fill="#C1C1C0"/>
<path d="M36.9002 64.632C36.1046 64.1017 17.3767 51.8648 0.997643 59.7828L0 57.737C17.5408 49.2633 37.3295 62.1821 38.163 62.7378L36.9002 64.632Z" fill="#C1C1C0"/>
<path d="M37.0137 64.7457C36.4328 63.9501 22.4406 45.2602 3.6874 48.0763L3.34644 45.8158C23.4382 42.785 38.226 62.5484 38.8448 63.3945L37.0137 64.7457Z" fill="#C1C1C0"/>
<path d="M37.0771 64.8846C36.7992 63.9249 29.942 41.2569 11.0752 37.7336L11.4919 35.4857C31.7352 39.2616 38.9713 63.2177 39.2744 64.228L37.0771 64.8846Z" fill="#C1C1C0"/>
<path d="M74.6971 61.3235H0.492676V68.2944H74.6971V61.3235Z" fill="#104A6B"/>
<path d="M39.792 49.6422L37.5947 49.5285L35.3973 49.6422C34.7028 36.8117 24.4233 28.0224 24.3096 27.934L23.2109 27.0121L24.3601 26.1534C30.1439 21.8345 31.23 13.4492 31.2426 13.3608L31.3689 12.3632H43.8205L43.9467 13.3608C43.9594 13.4492 45.058 21.8471 50.8292 26.1534L51.9784 27.0121L50.8797 27.934C50.7787 28.035 40.4866 36.8496 39.792 49.6422ZM26.7974 27.1131C29.4746 29.7019 36.5591 37.481 37.5947 48.3541C38.6302 37.481 45.7147 29.7019 48.3919 27.1131C43.8583 23.072 42.2924 17.023 41.8378 14.6363H33.3515C32.8969 17.023 31.3436 23.072 26.7974 27.1131Z" fill="#104A6B"/>
<path d="M38.744 27.4541H36.4583V49.5917H38.744V27.4541Z" fill="#104A6B"/>
<path d="M37.6075 28.5907C35.688 28.5907 34.1221 27.0247 34.1221 25.1052C34.1221 23.1857 35.688 21.6198 37.6075 21.6198C39.527 21.6198 41.0929 23.1857 41.0929 25.1052C41.0929 27.0247 39.527 28.5907 37.6075 28.5907ZM37.6075 23.8929C36.9382 23.8929 36.3952 24.4359 36.3952 25.1052C36.3952 25.7745 36.9382 26.3175 37.6075 26.3175C38.2768 26.3175 38.8198 25.7745 38.8198 25.1052C38.8198 24.4359 38.2642 23.8929 37.6075 23.8929Z" fill="#104A6B"/>
<path d="M33.5282 6.7688H31.2424V13.5124H33.5282V6.7688Z" fill="#104A6B"/>
<path d="M38.6681 6.7688H36.3823V13.5124H38.6681V6.7688Z" fill="#104A6B"/>
<path d="M43.8077 6.7688H41.522V13.5124H43.8077V6.7688Z" fill="#104A6B"/>
</g>
<defs>
<clipPath id="clip0">
<rect width="75.1768" height="75" fill="white"/>
</clipPath>
</defs>
</svg>
