<svg width="76" height="69" viewBox="0 0 76 69" fill="none" xmlns="http://www.w3.org/2000/svg">
<g clip-path="url(#clip0)">
<path d="M19.0985 4.85281C19.0985 4.85281 6.31893 18.5217 13.5833 37.2151C13.5675 37.2151 -0.362389 12.4831 19.0985 4.85281Z" fill="#EABF8B"/>
<path d="M2.97824 10.8914C2.97824 10.8914 0.220614 37.9328 23.7471 52.46C23.7471 52.46 -5.59402 42.2551 2.97824 10.8914Z" fill="#EABF8B"/>
<path d="M0.787978 32.6119C0.787978 32.6119 2.53709 46.9986 25.4805 58.0773C25.4805 58.0773 -2.55268 56.4858 0.787978 32.6119Z" fill="#EABF8B"/>
<path d="M5.72009 53.0373C5.72009 53.0373 9.94319 59.0136 26.0792 60.1527C37.1254 60.8704 38.323 64.6778 38.323 64.6778V69C38.323 69 38.2442 62.6649 20.6585 62.5244C10.9202 62.54 5.72009 53.0373 5.72009 53.0373Z" fill="#EABF8B"/>
<path d="M57.4216 4.85281C57.4216 4.85281 70.2012 18.5217 62.9369 37.2151C62.9369 37.2151 76.8826 12.4831 57.4216 4.85281Z" fill="#EABF8B"/>
<path d="M73.5418 10.8914C73.5418 10.8914 76.2994 37.9328 52.7729 52.46C52.7729 52.46 82.114 42.2551 73.5418 10.8914Z" fill="#EABF8B"/>
<path d="M75.7162 32.6119C75.7162 32.6119 73.9671 46.9986 51.0237 58.0773C51.0237 58.0773 79.0569 56.4858 75.7162 32.6119Z" fill="#EABF8B"/>
<path d="M71.2725 53.0373C71.2725 53.0373 66.8603 59.0136 50.7401 60.1527C39.6938 60.8704 38.3071 64.6778 38.3071 64.6778V69C38.3071 69 38.575 62.6649 56.145 62.5244C65.8833 62.54 71.2725 53.0373 71.2725 53.0373Z" fill="#EABF8B"/>
<path d="M12.0863 24.2015C12.0863 24.2015 11.6136 23.1717 12.953 23.3121C12.953 23.3121 14.7494 24.8101 18.8149 23.671C22.8804 22.5319 31.1375 20.2225 36.7788 21.3304C36.7788 21.3304 37.22 21.4396 38.0079 21.3928V24.0923C38.0079 24.0923 37.0152 23.9987 35.4552 23.671C33.8794 23.3433 30.2078 22.8752 24.8502 23.9206C19.4925 24.9661 18.3264 25.3874 16.2937 25.2314C14.2609 25.0909 12.559 24.5916 12.0863 24.2015Z" fill="#FFFFFD"/>
<path d="M5.0741 43.2225H5.72017L13.867 24.9817L13.6936 24.2171L5.0741 43.2225Z" fill="#FFFFFD"/>
<path d="M21.8088 43.4098C21.9507 43.441 22.3446 43.4098 22.3446 43.4098L13.8669 24.2171L13.7566 25.3093L21.8088 43.4098Z" fill="#FFFFFD"/>
<path d="M13.4099 43.2225H14.0875L14.1663 24.81L13.4099 25.0909V43.2225Z" fill="#FFFFFD"/>
<path d="M4.42798 43.2225H23.101L23.3531 43.5502C23.3531 43.5502 23.6368 43.7843 23.0852 44.1588C23.0852 44.1588 22.5022 45.329 21.4937 45.8128C20.4852 46.2965 17.9482 47.4668 13.9299 47.4668C9.9117 47.4668 5.32617 46.2497 5.07405 44.9858C4.90071 44.4708 4.42798 44.1744 4.42798 44.1744C4.42798 44.1744 3.49826 43.8467 4.42798 43.2225Z" fill="#FFFFFD"/>
<path d="M63.7088 24.2015C63.7088 24.2015 64.1816 23.1717 62.8422 23.3121C62.8422 23.3121 61.0458 24.8101 56.9802 23.671C52.9147 22.5319 44.7522 20.2225 39.1266 21.3304C39.1266 21.3304 38.6381 21.4396 38.0078 21.3928V24.0923C38.0078 24.0923 38.8902 23.9987 40.466 23.671C42.0418 23.3433 45.6661 22.8752 51.0238 23.9206C56.3814 24.9661 57.5318 25.3874 59.5488 25.2314C61.5658 25.0909 63.2361 24.5916 63.7088 24.2015Z" fill="#FFFFFD"/>
<path d="M70.7211 43.2225H70.075L61.9282 24.9817L62.1016 24.2171L70.7211 43.2225Z" fill="#FFFFFD"/>
<path d="M53.9864 43.4098C53.8446 43.441 53.4507 43.4098 53.4507 43.4098L61.9284 24.2171L62.0387 25.3093L53.9864 43.4098Z" fill="#FFFFFD"/>
<path d="M62.4168 43.2225H61.7077L61.6604 24.81L62.4168 25.0909V43.2225Z" fill="#FFFFFD"/>
<path d="M71.3672 43.2225H52.6942L52.4421 43.5502C52.4421 43.5502 52.1584 43.7843 52.7099 44.1588C52.7099 44.1588 53.293 45.329 54.3015 45.8128C55.31 46.2965 57.847 47.4668 61.8652 47.4668C65.8835 47.4668 70.469 46.2497 70.7211 44.9858C70.8945 44.4708 71.3672 44.1744 71.3672 44.1744C71.3672 44.1744 72.2969 43.8467 71.3672 43.2225Z" fill="#FFFFFD"/>
<path d="M23.3374 56.9539V54.9722C23.3374 54.9722 26.4417 55.3155 27.7181 48.0753C28.9945 40.8195 36.5897 0 36.5897 0H39.6625L49.0069 49.8385C49.0069 49.8385 49.8263 55.4403 53.1355 55.0814V56.5794L41.9474 56.6574V54.9566C41.9474 54.9566 45.2881 54.941 44.5947 50.884C43.9014 46.827 36.7158 7.47422 36.7158 7.47422L29.4042 48.7775C29.4042 48.7775 29.026 51.711 29.2939 52.7408C29.5617 53.7707 29.8139 55.1594 31.5472 55.1282V56.9539H23.3374Z" fill="#FFFFFD"/>
</g>
<defs>
<clipPath id="clip0">
<rect width="76" height="69" fill="white"/>
</clipPath>
</defs>
</svg>
