<?xml version="1.0" encoding="utf-8"?>
<!-- Generator: Adobe Illustrator 22.0.1, SVG Export Plug-In . SVG Version: 6.00 Build 0)  -->
<svg version="1.1" id="Слой_1" xmlns="http://www.w3.org/2000/svg" xmlns:xlink="http://www.w3.org/1999/xlink" x="0px" y="0px"
	 viewBox="0 0 76 69" style="enable-background:new 0 0 76 69;" xml:space="preserve">
<style type="text/css">
	.st0{clip-path:url(#SVGID_2_);}
	.st1{fill:#EABF8B;}
</style>
<g>
	<defs>
		<rect id="SVGID_1_" width="76" height="69"/>
	</defs>
	<clipPath id="SVGID_2_">
		<use xlink:href="#SVGID_1_"  style="overflow:visible;"/>
	</clipPath>
	<g class="st0">
		<path class="st1" d="M19.1,4.9c0,0-12.8,13.7-5.5,32.4C13.6,37.2-0.4,12.5,19.1,4.9z"/>
		<path class="st1" d="M3,10.9c0,0-2.8,27,20.8,41.6C23.7,52.5-5.6,42.3,3,10.9z"/>
		<path class="st1" d="M0.8,32.6c0,0,1.7,14.4,24.7,25.5C25.5,58.1-2.6,56.5,0.8,32.6z"/>
		<path class="st1" d="M5.7,53c0,0,4.2,6,20.4,7.1c11,0.7,12.2,4.5,12.2,4.5V69c0,0-0.1-6.3-17.7-6.5C10.9,62.5,5.7,53,5.7,53z"/>
		<path class="st1" d="M57.4,4.9c0,0,12.8,13.7,5.5,32.4C62.9,37.2,76.9,12.5,57.4,4.9z"/>
		<path class="st1" d="M73.5,10.9c0,0,2.8,27-20.8,41.6C52.8,52.5,82.1,42.3,73.5,10.9z"/>
		<path class="st1" d="M75.7,32.6c0,0-1.7,14.4-24.7,25.5C51,58.1,79.1,56.5,75.7,32.6z"/>
		<path class="st1" d="M71.3,53c0,0-4.4,6-20.5,7.1c-11,0.7-12.4,4.5-12.4,4.5V69c0,0,0.3-6.3,17.8-6.5C65.9,62.5,71.3,53,71.3,53z"
			/>
		<path d="M12.1,24.2c0,0-0.5-1,0.9-0.9c0,0,1.8,1.5,5.9,0.4c4.1-1.1,12.3-3.4,18-2.3c0,0,0.4,0.1,1.2,0.1v2.7c0,0-1-0.1-2.6-0.4
			c-1.6-0.3-5.2-0.8-10.6,0.2c-5.4,1-6.5,1.5-8.6,1.3C14.3,25.1,12.6,24.6,12.1,24.2z"/>
		<path d="M5.1,43.2h0.6L13.9,25l-0.2-0.8L5.1,43.2z"/>
		<path d="M21.8,43.4c0.1,0,0.5,0,0.5,0l-8.5-19.2l-0.1,1.1L21.8,43.4z"/>
		<path d="M13.4,43.2h0.7l0.1-18.4l-0.8,0.3V43.2z"/>
		<path d="M4.4,43.2h18.7l0.3,0.3c0,0,0.3,0.2-0.3,0.6c0,0-0.6,1.2-1.6,1.7c-1,0.5-3.5,1.7-7.6,1.7c-4,0-8.6-1.2-8.9-2.5
			c-0.2-0.5-0.6-0.8-0.6-0.8S3.5,43.8,4.4,43.2z"/>
		<path d="M63.7,24.2c0,0,0.5-1-0.9-0.9c0,0-1.8,1.5-5.9,0.4c-4.1-1.1-12.2-3.4-17.9-2.3c0,0-0.5,0.1-1.1,0.1v2.7
			c0,0,0.9-0.1,2.5-0.4c1.6-0.3,5.2-0.8,10.6,0.2c5.4,1,6.5,1.5,8.5,1.3C61.6,25.1,63.2,24.6,63.7,24.2z"/>
		<path d="M70.7,43.2h-0.6L61.9,25l0.2-0.8L70.7,43.2z"/>
		<path d="M54,43.4c-0.1,0-0.5,0-0.5,0l8.5-19.2l0.1,1.1L54,43.4z"/>
		<path d="M62.4,43.2h-0.7l0-18.4l0.8,0.3V43.2z"/>
		<path d="M71.4,43.2H52.7l-0.3,0.3c0,0-0.3,0.2,0.3,0.6c0,0,0.6,1.2,1.6,1.7c1,0.5,3.5,1.7,7.6,1.7c4,0,8.6-1.2,8.9-2.5
			c0.2-0.5,0.6-0.8,0.6-0.8S72.3,43.8,71.4,43.2z"/>
		<path d="M23.3,57v-2c0,0,3.1,0.3,4.4-6.9C29,40.8,36.6,0,36.6,0h3.1L49,49.8c0,0,0.8,5.6,4.1,5.2v1.5l-11.2,0.1V55
			c0,0,3.3,0,2.6-4.1c-0.7-4.1-7.9-43.4-7.9-43.4l-7.3,41.3c0,0-0.4,2.9-0.1,4c0.3,1,0.5,2.4,2.3,2.4V57H23.3z"/>
	</g>
</g>
</svg>
