<svg width="16" height="16" viewBox="0 0 16 16" fill="none" xmlns="http://www.w3.org/2000/svg">
<path d="M8.00001 8.47273C9.98118 8.47273 11.5874 6.5928 11.5874 4.27382C11.5874 1.05802 9.98126 0.0749435 8.00001 0.0749435C6.01868 0.0749435 4.4126 1.05802 4.4126 4.27382C4.41264 6.5928 6.01872 8.47273 8.00001 8.47273Z" fill="white"/>
<path d="M15.9218 14.653L14.1119 10.5759C14.0291 10.3893 13.8837 10.2346 13.7027 10.1403L10.8938 8.67814C10.8319 8.64596 10.7569 8.65222 10.7012 8.69437C9.90675 9.29525 8.97268 9.61285 8.00004 9.61285C7.02725 9.61285 6.09325 9.29525 5.29881 8.69437C5.24297 8.65222 5.16797 8.64596 5.10603 8.67814L2.29738 10.1403C2.11629 10.2346 1.97102 10.3892 1.88816 10.5759L0.0782704 14.653C-0.0465106 14.9341 -0.0209366 15.2556 0.146702 15.5135C0.314263 15.7712 0.597846 15.9251 0.905321 15.9251H15.0946C15.4021 15.9251 15.6858 15.7712 15.8533 15.5134C16.0209 15.2556 16.0466 14.9339 15.9218 14.653Z" fill="white"/>
</svg>
